<svg xmlns="http://www.w3.org/2000/svg" width="360" height="281" viewBox="0 0 360 281">
    <g fill="none" fill-rule="evenodd">
        <path fill="#000" d="M0 276H360V280H0z" transform="translate(0 1)"/>
        <path fill="#FFF" stroke="#FFF" d="M54 276L54 269 63 266 63 51 54 51 54 9 50 9 50 0 360 0 360 276z" transform="translate(0 1)"/>
        <path fill="#414141" stroke="#979797" d="M50.5 5.5H359.5V9.5H50.5zM53.5 46.5H359.5V50.5H53.5z" transform="translate(0 1)"/>
        <path fill="#EE4141" stroke="#979797" d="M116.5 16.5H359.5V40.5H116.5z" transform="translate(0 1)"/>
        <text fill="#000" font-family="BMJUAOTF, BM JUA_OTF" font-size="20" letter-spacing="4" transform="translate(0 1)">
            <tspan x="169.43" y="34">%섬프로%극장</tspan>
        </text>
        <g>
            <path fill="#FFF" stroke="#414141" stroke-width="4" d="M2 2H178V113H2z" transform="translate(0 1) translate(180 56)"/>
            <path fill="#F9F4F4" stroke="#9B9B9B" stroke-width="3" d="M9.5 10.5H84.5V104.5H9.5z" transform="translate(0 1) translate(180 56)"/>
            <path fill="#F9F4F4" stroke="#979797" stroke-width="3" d="M95.5 10.5H170.5V104.5H95.5z" transform="translate(0 1) translate(180 56)"/>
        </g>
        <g transform="translate(0 1) translate(70 59)">
            <path fill="#FFF" stroke="#414141" stroke-width="3" d="M1.5 1.5H95.5V207.5H1.5z"/>
            <rect width="5" height="44" x="81" y="96" fill="#414141" rx="2.5"/>
        </g>
    </g>
</svg>
